<svg width="120" height="120" viewBox="0 0 120 120" fill="none" xmlns="http://www.w3.org/2000/svg">
  <!-- Ocean Wave -->
  <path d="M10 75C20 67.5 40 60 60 67.5C80 75 90 90 100 75C110 60 115 67.5 115 75C115 82.5 110 90 100 97.5C90 105 80 97.5 60 90C40 82.5 20 90 10 82.5V75Z" fill="#0EA5E9"/>
  
  <!-- Leaf/Plant -->
  <path d="M60 30C70 22.5 80 30 70 45C60 60 50 67.5 40 60C30 52.5 40 37.5 60 30Z" fill="#22C55E"/>
  
  <!-- Mountain -->
  <path d="M30 105L45 90L60 97.5L75 90L90 105H30Z" fill="#6B7280"/>
  
  <!-- Conservation Circle -->
  <circle cx="60" cy="60" r="55" stroke="#10B981" stroke-width="2" fill="none" opacity="0.3"/>
</svg>
